<svg width="16" height="21" fill="none" xmlns="http://www.w3.org/2000/svg"><g clip-path="url(#clip0_77_18026)"><path d="M7.057.05H8.13c0 .013.006.02.02.02.012 0 .025.006.038.02a3.1 3.1 0 01.762.165c.235.085.456.192.664.322v-.02c.209.131.4.271.576.42.176.15.336.317.479.499.26.3.465.631.615.996.15.365.244.749.283 1.152v.02c.013.17.033.273.059.312.026.04.117.078.273.117.56.144 1.032.424 1.416.84.384.417.622.899.713 1.446v.02c.026.168.052.35.078.546.027.195.046.39.059.586v.039c.026.313.059.625.098.938l.117.937.078.967c.026.332.059.654.098.967.039.416.084.826.136 1.23.052.404.098.807.137 1.211l.078.977a53.525 53.525 0 00.176 1.66v1.113c-.065.39-.195.742-.39 1.055-.196.312-.437.58-.723.8v.02a3.063 3.063 0 01-.781.44c-.287.11-.593.172-.918.185H2.682c-.6-.104-1.11-.319-1.534-.645-.423-.325-.738-.78-.947-1.367a4.132 4.132 0 01-.176-1.172c0-.169.01-.335.03-.498.02-.162.042-.322.068-.478v.039a20.162 20.162 0 01.117-1.25 301.878 301.878 0 01.156-1.524 20.328 20.328 0 00.118-1.25c.026-.234.055-.471.088-.712.032-.241.055-.485.068-.733.026-.208.049-.423.068-.644a283.592 283.592 0 00.225-2.168 8.69 8.69 0 01.068-.742 7.47 7.47 0 01.127-.684l-.02.059a2.728 2.728 0 011.27-1.817 4.89 4.89 0 01.557-.273c.189-.078.38-.17.576-.274l.049-.322c.02-.124.042-.25.068-.38A3.87 3.87 0 015.67.498h.02c.195-.078.403-.156.624-.234.222-.078.45-.143.684-.195l.059-.02zM3.56 4.796a2.194 2.194 0 00-.86.41c-.247.196-.45.43-.605.703v.02c-.104.195-.183.41-.235.644a3.32 3.32 0 00-.078.723v.04a20.25 20.25 0 01-.107 1.083c-.046.358-.082.72-.108 1.084a44.836 44.836 0 00-.078.664l-.078.664-.078.664c-.026.222-.046.45-.059.684-.013.234-.032.469-.058.703l-.117.928c-.04.306-.072.615-.098.928-.026.299-.052.618-.078.957a20.65 20.65 0 01-.098.976 1.258 1.258 0 00-.03.166 2.157 2.157 0 00.068.762c.053.189.131.361.236.517l-.02-.02c.221.366.492.655.81.87.32.215.694.322 1.124.322h9.044a2.256 2.256 0 001.172-.332l-.02.02a2.19 2.19 0 00.82-.762 1.98 1.98 0 00.313-1.094v-.02c0-.234-.013-.465-.04-.693a12.046 12.046 0 01-.058-.693 22.82 22.82 0 01-.068-.723 24.32 24.32 0 00-.069-.722 28.892 28.892 0 00-.097-1.055c-.04-.351-.078-.703-.117-1.055a6.412 6.412 0 01-.03-.351 6.407 6.407 0 00-.029-.352l-.078-.703-.078-.703a33.948 33.948 0 01-.069-.674c-.02-.215-.035-.433-.049-.654a36.175 36.175 0 00-.087-.723 28.41 28.41 0 01-.088-.742 2.8 2.8 0 00-.098-.732 3.339 3.339 0 00-.273-.694l.02.02a2.392 2.392 0 00-.587-.664 1.967 1.967 0 00-.8-.371h-.02a.151.151 0 00-.03.039l-.01.02V6.71c0 .04.01.072.03.098a.79.79 0 00.068.078.84.84 0 01.41.723v.136a.847.847 0 01-.263.586.828.828 0 01-.596.235h-.117a.935.935 0 01-.517-.244.814.814 0 01-.264-.518.322.322 0 00-.01-.078.412.412 0 01-.01-.098.78.78 0 01.108-.4.901.901 0 01.283-.303.426.426 0 00.117-.127.33.33 0 00.04-.166v-1.64c0-.092-.017-.157-.05-.196-.032-.039-.094-.052-.185-.039H4.596c-.104 0-.176.016-.215.049-.04.032-.059.1-.059.205v1.582c0 .078.017.15.05.215a.376.376 0 00.146.156.961.961 0 01.224.283.8.8 0 01.088.381v.137-.02a.832.832 0 01-.156.44.882.882 0 01-.742.361.783.783 0 01-.284-.049 1.245 1.245 0 01-.244-.127 1.113 1.113 0 01-.254-.322.888.888 0 01-.097-.42c0-.143.032-.28.097-.41a.96.96 0 01.274-.332.239.239 0 00.088-.107.324.324 0 00.029-.127 5.11 5.11 0 00.01-.547c-.007-.183-.01-.365-.01-.547l.02-.762zm4.003-.82h2.891c.17 0 .277-.023.322-.069.046-.045.056-.153.03-.322a3.478 3.478 0 00-.82-1.728c-.43-.489-.99-.817-1.68-.987a5.417 5.417 0 00-.371-.068A2.894 2.894 0 006.54.948c-.32.118-.61.28-.87.489-.352.247-.641.56-.87.937a3.042 3.042 0 00-.42 1.23v.02c-.025.17-.025.27 0 .303.027.033.125.049.294.049h2.89z" fill="#000"/></g><defs><clipPath id="clip0_77_18026"><path fill="#fff" transform="matrix(1 0 0 -1 .02 20.05)" d="M0 0h15.41v20H0z"/></clipPath></defs></svg>