<svg width="32" height="31" viewBox="0 0 32 31" fill="none" xmlns="http://www.w3.org/2000/svg">
<g clip-path="url(#clip0_4_353)">
<path d="M30.6992 15.2693C30.6992 15.2888 30.6992 15.3035 30.6992 15.3132C30.6992 15.323 30.6992 15.3474 30.6992 15.3865C30.6992 17.4373 30.3086 19.3611 29.5273 21.158C28.7461 22.9744 27.6816 24.5515 26.334 25.8894C24.9863 27.2273 23.4043 28.2869 21.5879 29.0681C19.791 29.8494 17.8672 30.24 15.8164 30.24C15.7383 30.24 15.6602 30.24 15.582 30.24C15.5039 30.24 15.416 30.24 15.3184 30.24H15.3477C13.3164 30.24 11.4121 29.8494 9.63477 29.0681C7.85742 28.2869 6.30469 27.2273 4.97656 25.8894C3.64844 24.5515 2.59375 22.9939 1.8125 21.2166C1.05078 19.4197 0.669922 17.5056 0.669922 15.4744C0.669922 15.4353 0.669922 15.3962 0.669922 15.3572C0.669922 15.3181 0.669922 15.2791 0.669922 15.24V15.2693C0.669922 15.2302 0.669922 15.1863 0.669922 15.1375C0.669922 15.0886 0.669922 15.0349 0.669922 14.9763C0.669922 12.9451 1.05078 11.031 1.8125 9.23413C2.59375 7.45679 3.65332 5.89917 4.99121 4.56128C6.3291 3.22339 7.88672 2.16382 9.66406 1.38257C11.4609 0.62085 13.3848 0.23999 15.4355 0.23999C15.4941 0.23999 15.5625 0.23999 15.6406 0.23999C15.7188 0.23999 15.7969 0.23999 15.875 0.23999H15.8457C17.8965 0.23999 19.8203 0.630615 21.6172 1.41187C23.4141 2.19312 24.9863 3.25269 26.334 4.59058C27.6816 5.92847 28.7461 7.50562 29.5273 9.32202C30.3086 11.1189 30.6992 13.0427 30.6992 15.0935C30.6992 15.113 30.6992 15.1375 30.6992 15.1667C30.6992 15.196 30.6992 15.2302 30.6992 15.2693ZM29.4102 15.2107C29.3906 13.3162 29.0195 11.5388 28.2969 9.87866C27.5938 8.23804 26.6221 6.79761 25.3818 5.55737C24.1416 4.31714 22.6914 3.33569 21.0312 2.61304C19.3711 1.89038 17.6035 1.52905 15.7285 1.52905C15.6895 1.52905 15.6553 1.52905 15.626 1.52905C15.5967 1.52905 15.5625 1.52905 15.5234 1.52905C13.6484 1.52905 11.8906 1.88062 10.25 2.58374C8.58984 3.28687 7.14941 4.25366 5.92871 5.48413C4.70801 6.7146 3.73633 8.15015 3.01367 9.79077C2.31055 11.4509 1.95898 13.2185 1.95898 15.0935C1.95898 15.113 1.95898 15.1375 1.95898 15.1667C1.95898 15.196 1.95898 15.2302 1.95898 15.2693C1.95898 15.2888 1.95898 15.3083 1.95898 15.3279C1.95898 15.3474 1.95898 15.3669 1.95898 15.3865C1.95898 17.2615 2.31055 19.0193 3.01367 20.6599C3.73633 22.3201 4.70801 23.7605 5.92871 24.9812C7.14941 26.2019 8.58984 27.1736 10.25 27.8962C11.8906 28.5994 13.6484 28.9509 15.5234 28.9509C15.543 28.9509 15.5674 28.9509 15.5967 28.9509C15.626 28.9509 15.6504 28.9509 15.6699 28.9509C17.5645 28.9509 19.3516 28.5896 21.0312 27.8669C22.6914 27.1443 24.1416 26.1628 25.3818 24.9226C26.6221 23.6824 27.6035 22.2224 28.3262 20.5427C29.0488 18.8826 29.4102 17.1052 29.4102 15.2107ZM23.6094 15.2693C23.6094 15.8552 23.6191 16.4314 23.6387 16.9978C23.6582 17.5642 23.6484 18.1306 23.6094 18.697C23.6094 18.697 23.6094 18.7019 23.6094 18.7117C23.6094 18.7214 23.6094 18.7263 23.6094 18.7263C23.6094 19.4099 23.4629 20.0496 23.1699 20.6453C22.877 21.241 22.4863 21.7439 21.998 22.1541V22.1833C21.5879 22.4958 21.124 22.7449 20.6064 22.9304C20.0889 23.116 19.5469 23.2087 18.9805 23.2087C16.832 23.2478 14.6836 23.2478 12.5352 23.2087C12.5352 23.2087 12.5254 23.2087 12.5059 23.2087C12.4863 23.2087 12.4766 23.2087 12.4766 23.2087C11.832 23.2087 11.2314 23.1062 10.6748 22.9011C10.1182 22.696 9.61523 22.408 9.16602 22.0369C8.81445 21.7439 8.52637 21.3826 8.30176 20.9529C8.07715 20.5232 7.93555 20.0642 7.87695 19.5759C7.81836 18.9119 7.77441 18.2527 7.74512 17.5984C7.71582 16.9441 7.70117 16.2849 7.70117 15.6208C7.68164 15.406 7.66699 15.1667 7.65723 14.9031C7.64746 14.6394 7.64258 14.3708 7.64258 14.0974C7.64258 13.824 7.64746 13.5505 7.65723 13.2771C7.66699 13.0037 7.68164 12.74 7.70117 12.4861V12.5447C7.70117 11.9978 7.75977 11.4656 7.87695 10.948C7.99414 10.4304 8.16016 9.93726 8.375 9.46851L8.3457 9.5271C8.63867 8.98022 9.04395 8.52612 9.56152 8.16479C10.0791 7.80347 10.6504 7.57397 11.2754 7.47632H11.3047C11.5977 7.41772 11.9199 7.37378 12.2715 7.34448C12.623 7.31519 12.9844 7.30054 13.3555 7.30054C13.4336 7.30054 13.5117 7.30054 13.5898 7.30054C13.668 7.30054 13.7461 7.3103 13.8242 7.32983H13.7949C14.5957 7.32983 15.4062 7.32007 16.2266 7.30054C17.0469 7.28101 17.8672 7.29077 18.6875 7.32983C18.707 7.32983 18.7314 7.32983 18.7607 7.32983C18.79 7.32983 18.8145 7.32983 18.834 7.32983C19.3418 7.32983 19.835 7.39331 20.3135 7.52026C20.792 7.64722 21.2461 7.83765 21.6758 8.09155L21.6465 8.06226C22.2324 8.47241 22.7061 8.99976 23.0674 9.64429C23.4287 10.2888 23.6094 10.9919 23.6094 11.7537C23.6484 12.3396 23.6582 12.9304 23.6387 13.5261C23.6191 14.1218 23.6094 14.7029 23.6094 15.2693ZM21.998 15.2693V12.281C21.998 11.1287 21.7002 10.2839 21.1045 9.74683C20.5088 9.20972 19.6836 8.9314 18.6289 8.91187C17.5742 8.89233 16.5635 8.87769 15.5967 8.86792C14.6299 8.85815 13.6484 8.8728 12.6523 8.91187C11.4219 8.95093 10.582 9.2439 10.1328 9.79077C9.68359 10.3376 9.41992 11.1091 9.3418 12.1052C9.30273 12.574 9.27344 13.072 9.25391 13.5994C9.23438 14.1267 9.22461 14.6638 9.22461 15.2107C9.22461 15.7576 9.23438 16.3044 9.25391 16.8513C9.27344 17.3982 9.30273 17.9353 9.3418 18.4626V18.3455C9.41992 19.3416 9.68848 20.1179 10.1475 20.6746C10.6064 21.2312 11.4707 21.5291 12.7402 21.5681C13.7363 21.5876 14.7422 21.5974 15.7578 21.5974C16.7734 21.5974 17.7891 21.5876 18.8047 21.5681C19.8008 21.5291 20.5723 21.2703 21.1191 20.7917C21.666 20.3132 21.959 19.488 21.998 18.3162C21.998 17.8083 21.998 17.3005 21.998 16.7927C21.998 16.2849 21.998 15.7673 21.998 15.24V15.2693ZM19.8008 15.24C19.8008 15.2595 19.8057 15.2791 19.8154 15.2986C19.8252 15.3181 19.8301 15.3376 19.8301 15.3572C19.8301 16.4705 19.4297 17.4275 18.6289 18.2283C17.8281 19.0291 16.8613 19.4294 15.7285 19.4294C14.4199 19.3904 13.3945 18.99 12.6523 18.2283C11.9102 17.4666 11.5391 16.4998 11.5391 15.3279C11.5195 15.2888 11.5098 15.2449 11.5098 15.196C11.5098 15.1472 11.5098 15.1033 11.5098 15.0642C11.5098 13.9705 11.8955 13.0378 12.667 12.2664C13.4385 11.4949 14.3711 11.1091 15.4648 11.1091C15.5039 11.1091 15.5381 11.1091 15.5674 11.1091C15.5967 11.1091 15.6309 11.1091 15.6699 11.1091H15.6406C15.6602 11.1091 15.6797 11.1091 15.6992 11.1091C15.7188 11.1091 15.7383 11.1091 15.7578 11.1091C16.8711 11.1091 17.8232 11.5046 18.6143 12.2957C19.4053 13.0867 19.8008 14.0388 19.8008 15.1521C19.8008 15.1716 19.8008 15.1912 19.8008 15.2107C19.8008 15.2302 19.8008 15.24 19.8008 15.24ZM18.2188 15.2693C18.2188 15.2693 18.2188 15.2644 18.2188 15.2546C18.2188 15.2449 18.2188 15.24 18.2188 15.24C18.2188 14.5369 17.9697 13.9412 17.4717 13.4529C16.9736 12.9646 16.373 12.7205 15.6699 12.7205C14.9863 12.7205 14.4004 12.9597 13.9121 13.4382C13.4238 13.9167 13.1699 14.5076 13.1504 15.2107C13.1504 15.2107 13.1504 15.2156 13.1504 15.2253C13.1504 15.2351 13.1504 15.24 13.1504 15.24C13.1504 15.9431 13.3994 16.5388 13.8975 17.0271C14.3955 17.5154 14.9863 17.7595 15.6699 17.7595C16.373 17.7595 16.9688 17.5154 17.457 17.0271C17.9453 16.5388 18.1992 15.9529 18.2188 15.2693ZM18.8926 10.9919C18.8926 10.6404 18.9805 10.3816 19.1562 10.2156C19.332 10.0496 19.5957 9.97632 19.9473 9.99585C20.2207 10.0154 20.4502 10.1277 20.6357 10.3328C20.8213 10.5378 20.9141 10.7771 20.9141 11.0505C20.9141 11.3435 20.8115 11.5974 20.6064 11.8123C20.4014 12.0271 20.1523 12.1345 19.8594 12.1345C19.5859 12.115 19.3564 12.0027 19.1709 11.7976C18.9854 11.5925 18.8926 11.3435 18.8926 11.0505C18.8926 11.0505 18.8926 11.0408 18.8926 11.0212C18.8926 11.0017 18.8926 10.9919 18.8926 10.9919Z" fill="black"/>
</g>
<defs>
<clipPath id="clip0_4_353">
<rect width="30.36" height="30" fill="white" transform="matrix(1 0 0 -1 0.665039 30.24)"/>
</clipPath>
</defs>
</svg>
