<svg width="50" height="48" fill="none" xmlns="http://www.w3.org/2000/svg"><g clip-path="url(#clip0_3_12503)" fill="#000"><path d="M35.083 33.051c1.544.161 2.57.271 4.403.182 5.558-.33 10.504-3.719 10.504-9.418 0-7.439-6.97-9.042-13.473-9.042H24.588c1.646-1.429 2.681-3.316 2.736-5.491C27.473 2.462 21.398.55 13.737.55H.005v.373c4.67.233 5.37 1.773 5.37 6.353v18.536c0 4.856-.606 6.633-5.37 6.866v.373c3.224-.093 4.997-.14 7.988-.14 3.177 0 5.09.047 8.408.14v-.373c-4.39-.233-5.137-2.146-5.137-6.96v-7.611c1.026.14 2.664.186 3.877.186a98.715 98.715 0 003.41 6.353c1.354 2.337 2.665 4.389 4.065 5.788 1.48 1.48 3.321 2.49 6.04 2.846v7.018c0 4.852-.708 6.688-5.417 6.875v.377c3.156-.093 5.04-.14 8.056-.14 3.203 0 5.04.047 9.137.14v-.377c-4.993-.187-5.841-2.167-5.841-7.065v-6.976c.166-.026.33-.056.496-.081h-.004zm-.496-12.294c0-1.93.046-3.863.093-5.462 6.643-.047 8.951 3.388 8.951 8.57 0 5.183-2.685 8.948-9.044 8.664V20.757zm-15.9-4.843c-1.68 1.26-4.11 1.82-7.428 1.726V6.48c0-2.244.047-3.923.094-5.416 6.96-.046 9.76 3.316 9.76 8.685 0 2.85-.793 4.902-2.43 6.162l.004.004zm6.402 8.499c-1.82-2.71-3.178-5.043-4.391-7.473 1.256-.42 2.397-1.005 3.364-1.738 3.97.343 4.59 2.001 4.59 6.73v7.12c-1.073-1.183-2.24-2.706-3.568-4.644l.005.005zM2.007 38.004H.103v.06c.649.033.75.241.75.937v2.468c0 .636-.084.92-.75.941v.06c.44-.013.772-.022 1.187-.022.442 0 .705.009 1.332.022v-.06c-.717-.025-.84-.305-.84-.962v-.93c.242.022.403.04.666.026.794-.042 1.49-.504 1.49-1.293 0-1.026-1.014-1.243-1.93-1.243v-.004zm-.225 2.443V38.83c0-.25.005-.551.017-.742.862-.013 1.137.475 1.137 1.175 0 .7-.31 1.221-1.154 1.183zm6.851 1.03c-.466-1.03-1.455-3.256-1.565-3.55l-.05.022c-.128.33-1.295 2.706-1.774 3.677-.289.59-.5.75-.836.784v.06c.327-.013.547-.021.777-.021.373 0 .555.008.852.02v-.05c-.53-.017-.793-.187-.59-.802.098-.288.268-.687.365-.89h1.494c.114.263.31.704.39.958.165.5-.026.691-.556.73v.05c.36-.02.768-.02 1.184-.02.36 0 .75.008 1.14.02v-.05c-.377-.051-.491-.2-.83-.938zm-2.778-.852l.73-1.565c.059.14.623 1.42.678 1.565H5.855z"/><path d="M14.191 41.231a9.127 9.127 0 01-.573-.98c.493-.16.917-.52.917-1.06.012-.95-.857-1.191-1.964-1.191h-2.028v.06c.64.033.75.241.75.856v2.523c0 .653-.063.929-.75.963v.06a35.77 35.77 0 011.188-.022c.44 0 .725.013 1.204.021v-.06c-.61-.037-.712-.313-.712-.95v-1.034c.127.021.352.026.5.026.128.258.297.589.467.886.178.314.352.577.552.776.271.263.61.411 1.187.411.187 0 .437-.025.615-.06v-.059c-.45-.004-.755-.288-1.357-1.174l.004.008zm-.954-1.115c-.217.174-.552.25-1.006.237v-1.526c0-.322.013-.568.017-.742.9-.022 1.315.424 1.315 1.204 0 .377-.11.653-.326.827zm3.313-2.112v.06c.662.025.747.267.747.937v2.468c0 .666-.11.92-.747.941v.06c.45-.022.81-.022 1.192-.022.416 0 .819.009 1.23.022v-.06c-.61-.02-.742-.263-.742-.937v-2.472c0-.666.102-.916.742-.938v-.059a37.25 37.25 0 01-1.213.017c-.411 0-.814-.004-1.213-.017h.004zm7.275 3.146c0-.754-.5-1.114-1.48-1.365-.48-.127-.904-.347-.904-.941 0-.428.268-.844.874-.844.607 0 1.027.73 1.205 1.39h.06c.004-.504.004-.788-.005-.915-.038-.259-.127-.39-.48-.467a3.566 3.566 0 00-.776-.076c-1.09 0-1.739.475-1.743 1.302 0 .895.73 1.196 1.485 1.391.538.136.916.399.912.912 0 .487-.289.941-.942.941-.59 0-1.192-.538-1.379-1.53h-.06c-.059.61-.063.826-.059.962.013.276.102.454.54.543.254.06.602.097.954.097 1.111 0 1.803-.526 1.803-1.39l-.005-.01z"/></g><defs><clipPath id="clip0_3_12503"><path fill="#fff" transform="translate(0 .55)" d="M0 0h50v47H0z"/></clipPath></defs></svg>