<svg width="21" height="21" fill="none" xmlns="http://www.w3.org/2000/svg"><g clip-path="url(#clip0_77_18024)"><path d="M8.838.284a4.481 4.481 0 00-2.187 1.309 4.708 4.708 0 00-1.153 2.266 4.271 4.271 0 00.059 2.03 4.92 4.92 0 00.928 1.768 4.75 4.75 0 001.572 1.24 4.478 4.478 0 002.031.47c.573 0 1.133-.13 1.68-.391a5.208 5.208 0 002.48-2.48c.26-.548.391-1.1.391-1.66 0-.756-.17-1.46-.508-2.11a4.973 4.973 0 00-1.328-1.602 4.614 4.614 0 00-1.856-.879 4.143 4.143 0 00-2.109.04zm2.95 1.094c.351.17.63.355.84.557.208.202.416.478.624.83.26.43.417.752.469.967.052.215.065.602.039 1.162-.026.716-.172 1.315-.44 1.797-.266.481-.686.905-1.26 1.27a2.41 2.41 0 01-.79.39c-.254.065-.622.11-1.104.137-.56.026-.947.013-1.162-.04-.215-.052-.537-.208-.967-.468a3.907 3.907 0 01-1.27-1.211 3.679 3.679 0 01-.556-1.514 3.778 3.778 0 01.147-1.63 3.484 3.484 0 01.879-1.485c.625-.651 1.338-1.045 2.138-1.182.801-.136 1.605.004 2.412.42zm-6.915 8.867c-.43.118-.918.378-1.465.782-.546.403-.963.82-1.25 1.25-.39.534-.673 1.168-.85 1.904a8.144 8.144 0 00-.185 2.393c.04.768.144 1.36.313 1.777.17.416.456.768.86 1.055l.566.39 14.082.098.586-.39c.572-.392.927-.77 1.064-1.134.137-.364.205-1.12.205-2.265 0-1.276-.11-2.217-.332-2.822-.221-.606-.677-1.221-1.367-1.846-.716-.651-1.43-1.045-2.139-1.182-.71-.137-2.392-.198-5.049-.185-1.237 0-2.35.016-3.34.048-.989.033-1.555.075-1.699.127zm10.547.938c.547.3.987.609 1.319.928.332.319.615.719.85 1.2.195.391.318.733.37 1.026.052.293.078.824.078 1.592 0 1.003-.068 1.702-.205 2.1-.136.397-.407.706-.81.927-.222.117-.755.186-1.602.205-.846.02-2.721.023-5.625.01l-6.719-.058-.585-.645-.586-.664.058-1.875c.04-1.055.147-1.83.322-2.324.176-.495.525-.996 1.045-1.504.625-.625 1.306-1.006 2.041-1.143.736-.136 2.412-.198 5.03-.185 2.057.026 3.326.055 3.808.088.482.032.886.14 1.211.322z" fill="#000"/></g><defs><clipPath id="clip0_77_18024"><path fill="#fff" transform="matrix(1 0 0 -1 .02 20.05)" d="M0 0h20v20H0z"/></clipPath></defs></svg>